<?xml version="1.0" encoding="UTF-8" standalone="no"?>
<svg width="28px" height="28px" viewBox="0 0 28 28" version="1.1" xmlns="http://www.w3.org/2000/svg" xmlns:xlink="http://www.w3.org/1999/xlink">
    <!-- Generator: Sketch 3.8.3 (29802) - http://www.bohemiancoding.com/sketch -->
    <title>ic_no_u_turn</title>
    <desc>Created with Sketch.</desc>
    <defs></defs>
    <g id="Symbols" stroke="none" stroke-width="1" fill="none" fill-rule="evenodd">
        <g id="ic_no_u_turn">
            <circle id="Oval-1-Copy-300" fill-opacity="0.5" fill="#D8D8D8" cx="14" cy="14" r="13"></circle>
            <path d="M20,12.5 L20,21.99652 C20.0000053,22.1300528 19.9469962,22.258118 19.8526351,22.35254 C19.758274,22.4469619 19.6302914,22.5000053 19.4968447,22.5 L18.5044851,22.5 C18.3710314,22.5000159 18.2430386,22.4469772 18.1486689,22.3525541 C18.0542991,22.258131 18.0012845,22.1300598 18.0012898,21.99652 L18.0012898,12.5 C18.0012898,10.5670034 16.435297,9 14.5035469,9 C12.5717969,9 11.0058041,10.5670034 11.0058041,12.5 L11.0058041,16.5 L10.9967199,16.5 C10.9658127,16.6413173 11.023045,16.7873467 11.1417176,16.8699645 C11.2603901,16.9525823 11.4171194,16.9555093 11.5387901,16.87738 L14.4887265,15.53363 C14.6543864,15.4796739 14.835641,15.5433335 14.9312612,15.6890554 C15.0268814,15.8347773 15.01321,16.026509 14.8978825,16.15717 L9.99736485,22.5 L5.09677727,16.15717 C4.98144972,16.026509 4.96777836,15.8347773 5.06339853,15.6890554 C5.1590187,15.5433335 5.34027331,15.4796739 5.50593323,15.53363 L8.4558696,16.87738 C8.57754603,16.9555246 8.73428985,16.9526074 8.85297814,16.8699893 C8.97166642,16.7873712 9.02891226,16.6413317 8.99800974,16.5 L9.00709388,16.5 L9.00709388,12.5 C9.00709388,9.46243388 11.4679397,7 14.5035469,7 C17.5391541,7 20,9.46243388 20,12.5 L20,12.5 Z" id="Shape-Copy-157" fill="#000000"></path>
            <circle id="Oval-1-Copy-296" stroke="#EF0606" stroke-width="2" cx="14" cy="14" r="13"></circle>
            <path d="M5,22.67767 L22.6776691,5" id="Line-Copy-92" stroke="#EF0606" stroke-width="2" stroke-linecap="square"></path>
        </g>
    </g>
</svg>