<?xml version="1.0" encoding="UTF-8" standalone="no"?>
<svg width="28px" height="28px" viewBox="0 0 28 28" version="1.1" xmlns="http://www.w3.org/2000/svg" xmlns:xlink="http://www.w3.org/1999/xlink">
    <!-- Generator: Sketch 3.8.3 (29802) - http://www.bohemiancoding.com/sketch -->
    <title>ic_no_left_turn</title>
    <desc>Created with Sketch.</desc>
    <defs></defs>
    <g id="Symbols" stroke="none" stroke-width="1" fill="none" fill-rule="evenodd">
        <g id="ic_no_left_turn">
            <circle id="Oval-1-Copy-303" fill-opacity="0.5" fill="#D8D8D8" cx="14" cy="14" r="13"></circle>
            <path d="M13.9917,9.99872149 L14.0027,10.0005515 C17.3269067,10.0395959 19.9990881,12.7493637 19.9917,16.0737915 L19.9917,20.0188615 L19.98859,20.0188615 L19.99059,21.5220315 C19.9907732,21.6537459 19.9385741,21.7801275 19.8454969,21.8733228 C19.7524198,21.9665181 19.6261045,22.0188775 19.49439,22.0188615 L18.48792,22.0188615 C18.3563143,22.0188615 18.2300988,21.9665813 18.1370395,21.873522 C18.0439802,21.7804627 17.9917,21.6542472 17.9917,21.5226415 L17.9917,16.0737915 C18.0004589,13.8534123 16.2230053,12.0383176 14.00293,12.0005515 L12.00415,12.0005515 C11.8628215,11.9696329 11.7167868,12.0269148 11.6341699,12.1456758 C11.551553,12.2644367 11.5486322,12.4212768 11.62677,12.5430315 L12.97052,15.4948615 C13.0244946,15.6606319 12.9608395,15.8420183 12.81511,15.9377052 C12.6693804,16.033392 12.4776368,16.0197019 12.34698,15.9042815 L6,11.0188615 L12.347,6.09686149 C12.4776568,5.9814411 12.6694004,5.96775093 12.81513,6.0634378 C12.9608595,6.15912468 13.0245146,6.34051111 12.97054,6.50628149 L11.62677,9.45813149 C11.5486407,9.57988072 11.5515677,9.73671115 11.6341855,9.85546028 C11.7168033,9.97420941 11.8628327,10.0314786 12.00415,10.0005515 L13.9917,10.0005515" id="Shape-Copy-160" fill="#000000"></path>
            <circle id="Oval-1-Copy-299" stroke="#EF0606" stroke-width="2" cx="14" cy="14" r="13"></circle>
            <path d="M5,22.67767 L22.6776691,5" id="Line-Copy-95" stroke="#EF0606" stroke-width="2" stroke-linecap="square"></path>
        </g>
    </g>
</svg>