<?xml version="1.0" encoding="UTF-8" standalone="no"?>
<svg width="28px" height="28px" viewBox="0 0 28 28" version="1.1" xmlns="http://www.w3.org/2000/svg" xmlns:xlink="http://www.w3.org/1999/xlink">
    <!-- Generator: Sketch 3.8.3 (29802) - http://www.bohemiancoding.com/sketch -->
    <title>ic_no_straight_on</title>
    <desc>Created with Sketch.</desc>
    <defs></defs>
    <g id="Symbols" stroke="none" stroke-width="1" fill="none" fill-rule="evenodd">
        <g id="ic_no_straight_on">
            <circle id="Oval-1-Copy-301" fill-opacity="0.5" fill="#D8D8D8" cx="14" cy="14" r="13"></circle>
            <path d="M18.4948115,12.96637 L15.5429615,11.62262 C15.4212151,11.544476 15.2643764,11.5473962 15.1456233,11.6300183 C15.0268703,11.7126403 14.9696071,11.8586808 15.0005515,12 L15.0005515,21.49652 C15.0005568,21.6300528 14.9475134,21.758118 14.8530915,21.85254 C14.7586695,21.9469619 14.6306043,22.0000053 14.4970715,22 L13.5040715,22 C13.3705387,22.0000053 13.2424735,21.9469619 13.1480515,21.85254 C13.0536295,21.758118 13.0005862,21.6300528 13.0005915,21.49652 L13.0005915,12 C13.0315292,11.8586802 12.9742625,11.7126428 12.8555095,11.6300223 C12.7367565,11.5474018 12.5799194,11.5444799 12.4581715,11.62262 L9.50628149,12.96637 C9.34051111,13.0203446 9.15912468,12.9566895 9.0634378,12.81096 C8.96775093,12.6652304 8.9814411,12.4734868 9.09686149,12.34283 L14.0005515,6 L18.9042415,12.34283 C19.0196481,12.4734921 19.0333291,12.6652287 18.9376434,12.8109528 C18.8419578,12.9566769 18.6605799,13.0203336 18.4948115,12.96637 L18.4948115,12.96637 Z" id="Shape-Copy-158" fill="#000000"></path>
            <circle id="Oval-1-Copy-297" stroke="#EF0606" stroke-width="2" cx="14" cy="14" r="13"></circle>
            <path d="M5,22.67767 L22.6776691,5" id="Line-Copy-93" stroke="#EF0606" stroke-width="2" stroke-linecap="square"></path>
        </g>
    </g>
</svg>