<?xml version="1.0" encoding="UTF-8" standalone="no"?>
<svg width="28px" height="28px" viewBox="0 0 28 28" version="1.1" xmlns="http://www.w3.org/2000/svg" xmlns:xlink="http://www.w3.org/1999/xlink">
    <!-- Generator: Sketch 3.8.3 (29802) - http://www.bohemiancoding.com/sketch -->
    <title>ic_only_right_turn</title>
    <desc>Created with Sketch.</desc>
    <defs>
        <circle id="path-1" cx="14" cy="14" r="13"></circle>
        <mask id="mask-2" maskContentUnits="userSpaceOnUse" maskUnits="objectBoundingBox" x="0" y="0" width="26" height="26" fill="white">
            <use xlink:href="#path-1"></use>
        </mask>
    </defs>
    <g id="Symbols" stroke="none" stroke-width="1" fill="none" fill-rule="evenodd">
        <g id="ic_only_right_turn">
            <circle id="Oval-1-Copy-318" fill="#003399" cx="14" cy="14" r="13"></circle>
            <path d="M13.9887853,12.0005431 C11.76871,12.0383093 9.99125642,13.8534039 10.0000153,16.0737831 L10.0000153,21.5226331 C10.0000153,21.7966879 9.77785002,22.0188531 9.50379528,22.0188531 L8.49732528,22.0188531 C8.3656194,22.0188559 8.239317,21.9664906 8.14625068,21.8732968 C8.05318436,21.7801029 8.00099212,21.6537289 8.00117528,21.5220231 L8.00312528,20.0188531 L8.00001528,20.0188531 L8.00001528,16.0737831 C7.99262716,12.7493553 10.6648085,10.0395876 13.9890153,10.0005431 L14.0000153,9.99871312 L14.0000153,10.0005431 L15.9875653,10.0005431 C16.1288825,10.0314703 16.2749119,9.97420104 16.3575297,9.85545191 C16.4401475,9.73670279 16.4430745,9.57987235 16.3649453,9.45812312 L15.0211953,6.50628312 C14.9672205,6.34051492 15.0308727,6.15913021 15.1765988,6.06344174 C15.3223249,5.96775328 15.5140662,5.98143834 15.6447253,6.09685312 L21.9917153,11.0188531 L15.6447153,15.9042931 C15.5140584,16.0197135 15.3223149,16.0334037 15.1765853,15.9377168 C15.0308558,15.8420299 14.9672006,15.6606435 15.0211753,15.4948731 L16.3649253,12.5430331 C16.4430631,12.4212784 16.4401422,12.2644384 16.3575254,12.1456774 C16.2749085,12.0269165 16.1288738,11.9696345 15.9875453,12.0005531 L13.9887853,12.0005531 L13.9887853,12.0005431 Z" id="Shape-Copy-167" fill="#FFFFFF"></path>
            <g id="Oval-1-Copy-314">
                <use stroke="#444444" stroke-width="1" xlink:href="#path-1"></use>
                <use stroke="#FFFFFF" mask="url(#mask-2)" stroke-width="2" xlink:href="#path-1"></use>
            </g>
        </g>
    </g>
</svg>